<svg id="IDELA_Image" data-name="IDELA Image" xmlns="http://www.w3.org/2000/svg" viewBox="0 0 960 238.08"><defs><style>.cls-1{fill:#5a2b82;}.cls-2{fill:#da291c;}.cls-3{fill:#00838c;}.cls-4{fill:#f2a900;}.cls-5{fill:#fff;}.cls-6{fill:#72b03b;}</style></defs><rect class="cls-1" x="746.5" y="35.54" width="194" height="171" transform="translate(49.52 -188.39) rotate(13.13)"/><rect class="cls-2" x="19.5" y="22.54" width="194" height="171" transform="translate(-21.39 29.1) rotate(-13.05)"/><rect class="cls-3" x="558" y="54.54" width="194" height="171" transform="translate(-12.21 81.18) rotate(-7.03)"/><rect class="cls-4" x="205.5" y="45.54" width="194" height="171" transform="translate(15.52 -31.19) rotate(6.06)"/><path class="cls-5" d="M710.9,183.87l-76.3,11.28a5.11,5.11,0,0,1-5.79-4.29L614,90.52a5.11,5.11,0,0,1,4.3-5.79l24.38-3.6a5.09,5.09,0,0,1,5.78,4.29L659.17,158a5.08,5.08,0,0,0,5.78,4.29l41.84-6.18a5.09,5.09,0,0,1,5.78,4.29l2.62,17.73A5.08,5.08,0,0,1,710.9,183.87Z"/><path class="cls-5" d="M886.75,183.64l-25.27-6.2a5,5,0,0,1-3.75-4.1l-2.28-14.66a5,5,0,0,0-3.76-4.09l-31-7.62a5,5,0,0,0-5.32,2l-8.1,11.78a5,5,0,0,1-5.32,2L777,156.69a5,5,0,0,1-2.87-7.79L837,61.71a5,5,0,0,1,5.26-1.93l27.64,6.78a5,5,0,0,1,3.73,4L892.88,177.9A5,5,0,0,1,886.75,183.64Zm-53.24-61.07,17,4.17-3.66-23.53Z"/><path class="cls-5" d="M293.93,184.77l-41.15-4.9a5.06,5.06,0,0,1-4.42-5.61l11.88-99.81A5,5,0,0,1,265.85,70l44,5.23c18.28,2.18,32.4,9.09,42,20.55s13.58,25.58,11.66,41.71c-2,16.92-9.25,29.78-21.51,38.24C329.87,184.1,313.72,187.12,293.93,184.77Zm-8.59-29.07,11.73,1.39c9.4,1.12,16.55-.46,21.9-4.83s8.51-10.64,9.51-19c1-8.69-.54-15.55-4.79-21s-10.94-8.59-20.41-9.72l-11.45-1.36Z"/><path class="cls-5" d="M138.65,154.7l-23.57,5.21a5,5,0,0,1-6-3.79l-21.43-97a5,5,0,0,1,3.8-6L115.07,48a5,5,0,0,1,6,3.8l21.42,97A5,5,0,0,1,138.65,154.7Z"/><rect class="cls-6" x="379" y="8.04" width="194" height="171"/><path class="cls-5" d="M512,145.32H443.11a4.71,4.71,0,0,1-4.71-4.71V46.84a4.71,4.71,0,0,1,4.71-4.71h68a4.71,4.71,0,0,1,4.71,4.71V63.41a4.71,4.71,0,0,1-4.71,4.71H470.6V79.28H509A4.71,4.71,0,0,1,513.71,84v16.56a4.71,4.71,0,0,1-4.72,4.71H470.6v14.08H512a4.71,4.71,0,0,1,4.71,4.71v16.56A4.71,4.71,0,0,1,512,145.32Z"/></svg>