<svg xmlns="http://www.w3.org/2000/svg" width="205.685mm" height="40.693mm" viewBox="0 0 583.045 115.351">
  <g>
    <g>
      <path d="M121.367,49.289c4.771-5.636,6.885-8.24,6.427-9.662a4.88,4.88,0,0,0-3.131-2.639c-1.8-.68-4.262-.995-5.5-.268a19.311,19.311,0,0,0-2.7,2.824l-1.507,1.7h0c-.96-.982-1.985-1.958-2.988-2.829a51.241,51.241,0,0,0-25.869-12c-3.881-4.125-8.944-6.04-13.926-5.26A15.262,15.262,0,0,0,61.779,28.2,57.562,57.562,0,0,0,36.107,44.463v-.005c-1.569-.47-5.01.139-7.163,1.319a3.636,3.636,0,0,0-2.1,2.35c-.118.668.152,1.714,2.834,4.774l0,0a56.677,56.677,0,0,0-8.392,36.607,51.8,51.8,0,0,0,17.313,33.107,51.168,51.168,0,0,0,11.2,7.424,63.138,63.138,0,0,0,58.863-2.081l.022-.016a3.205,3.205,0,0,0,1.252-4.219l-.217-.491c-2.964-6.643-11.983-26.859-6.96-45.3,2.1-7.719,8.159-15.939,13.394-22.389h0a50.337,50.337,0,0,1,8.009,29.06,46.043,46.043,0,0,1-9.168,25.986,1.092,1.092,0,0,0-.164,1.108l.572,1.333a1.09,1.09,0,0,0,1.837.23h0C132.044,94.486,133.817,68.647,121.367,49.289ZM55.943,92.9a104.441,104.441,0,0,0-1.337,30.755l-.005-.005a52.185,52.185,0,0,1-10.665-7.172A51.174,51.174,0,0,1,27.117,86.973,47.453,47.453,0,0,1,32.2,55.628h0l0,0v0c1.985,2.074,4.383,4.456,6.9,6.947,6.149,6.093,13.12,13,16.51,17.916,1.964,2.846,1.352,6.446.335,12.413m53.462-45.739c-11.332,11.389-22.014,17.566-31.734,18.3-7.477.563-15.4-1.663-23.543-6.627A90.8,90.8,0,0,1,39.1,46.907l-.317-.3h0A46.2,46.2,0,0,1,59.24,33.923l0-.005.006,0-.008,0a23.119,23.119,0,0,0-.47,9.658,21.813,21.813,0,0,0,8.345,14.306,14.643,14.643,0,0,0,21.136-3.323,21.811,21.811,0,0,0,3.554-16.175,24.086,24.086,0,0,0-.729-3.2l0,0a51.556,51.556,0,0,1,15.543,9.355c.944.823,1.878,1.7,2.786,2.618Z" transform="translate(-20.907 -20.985)" fill="#da291c"/>
      <path d="M299.819,77.494h-9.3V88.013c0,2.5,1.445,4.1,3.932,4.1a11.161,11.161,0,0,0,5.367-1.494V96.43a18.163,18.163,0,0,1-7.412,1.613c-5.318,0-9.912-2.437-9.912-9.579V77.494h-3.651V75.947L289.522,64h1v8.021h9.3Zm109.794,8.534c-5.43,2.606-8.748,4.149-13.672,4.149-7.861,0-13.465-4.812-13.465-11.571,0-6.7,5.658-11.462,13.682-11.462,4.648,0,8.855,1.556,13.015,3.872V62.607a26.584,26.584,0,0,0-13.679-3.327c-14.454,0-22.713,9.42-22.713,19.491,0,9.749,7.318,19.272,22,19.272a29.2,29.2,0,0,0,14.834-3.769Zm-195.9,8.177L208,98.024a7.607,7.607,0,0,1-4.99-3.152,10,10,0,0,1-7.575,3.152c-8.631,0-12.116-7.691-12.116-13.236,0-6.14,3.754-13.285,12.338-13.285a12.955,12.955,0,0,1,6.7,1.724V72h7.972V88.661C210.33,91,210.778,93.587,213.712,94.205Zm-11.4-15.894a8.682,8.682,0,0,0-4.656-1.446c-4.537,0-6.088,4.821-6.088,8.479,0,3.379,1.774,6.917,6.245,6.917a6.453,6.453,0,0,0,4.5-1.715Zm65.412,7.753H249.388c.278,4.539,3.376,7.2,8.424,7.2,3.208,0,5.7-.942,9.459-3.654v5.034a18.481,18.481,0,0,1-11.4,3.378c-8.966,0-14.779-5.2-14.779-13.187,0-7.8,5.586-13.334,13.454-13.334C261.964,71.5,268.109,76.763,267.721,86.064Zm-6.759-4.209c-.334-3.5-2.444-5.582-5.538-5.582-3.164,0-5.2,2.038-5.544,5.582Zm99.784,4.229H342.414c.277,4.54,3.379,7.2,8.414,7.2,3.216,0,5.711-.941,9.48-3.654v5.034a18.528,18.528,0,0,1-11.418,3.377c-8.969,0-14.777-5.2-14.777-13.186,0-7.8,5.592-13.335,13.449-13.335C354.984,71.522,361.136,76.782,360.746,86.084Zm-7.086-4.21c-.336-3.5-2.442-5.581-5.547-5.581-3.147,0-5.2,2.038-5.533,5.581Zm-41.44-22.1h-8.026v37.76h8.026V82.423a5.018,5.018,0,0,1,5.369-5.039c2.493,0,4.151,1.782,4.151,5.6V97.538h8.041V81.269c0-6.931-4.711-9.747-9.369-9.747a10.067,10.067,0,0,0-8.192,4.262h0Zm111.543,0h-8.025v37.76h8.025V82.423a5.018,5.018,0,0,1,5.371-5.039c2.49,0,4.149,1.782,4.149,5.6V97.538h8.041V81.269c0-6.931-4.711-9.747-9.369-9.747a10.067,10.067,0,0,0-8.192,4.262h0ZM177.81,62.214a30.9,30.9,0,0,0-12.8-2.934c-8.746,0-14.393,4.325-14.393,10.852,0,13.562,19.209,11.3,19.209,17.507,0,2.2-1.928,3.478-5.529,3.478-4.162,0-7.482-1.275-12.9-4.873V94.39c3.764,1.929,7.032,3.653,13.613,3.653,8.426,0,14.514-4.208,14.514-11.456,0-13.191-19.212-11.582-19.212-17.29,0-1.866,2.153-3.091,5.53-3.091,3.223,0,6.476.938,11.966,3.373ZM450.583,59.28a4.43,4.43,0,1,0,4.422,4.425A4.439,4.439,0,0,0,450.583,59.28Zm4.041,12.737H446.6V97.538h8.023Zm14.188-12.239h-8.023v27.7c0,5.027,1.382,10.288,9.746,10.568l2.548-5.814c-3.431-.658-4.271-2.215-4.271-6.092ZM516.3,72.017h-8.021V97.538H516.3V86.313c0-4.751,2.479-7.254,6.6-7.254,1.264,0,2.642.543,4.754,1.864l2.217-7.08c-2.321-1.711-3.711-2.321-5.311-2.321-2.576,0-6.3,1.432-8.262,6.388Zm41.088,14.067h-18.33c.283,4.54,3.375,7.2,8.41,7.2,3.215,0,5.709-.941,9.475-3.654v5.034a18.5,18.5,0,0,1-11.412,3.377c-8.967,0-14.778-5.2-14.778-13.186,0-7.8,5.584-13.335,13.448-13.335C551.621,71.522,557.763,76.782,557.384,86.084Zm-7.1-4.21c-.334-3.5-2.434-5.581-5.534-5.581-3.152,0-5.2,2.038-5.533,5.581Zm28.318-10.323a10.066,10.066,0,0,0-8.192,4.262v-3.8H562.39v25.55h8.025V82.352a5.054,5.054,0,0,1,5.372-4.939c2.49,0,4.148,1.781,4.148,5.6V97.567h8.039V81.3C587.974,74.367,583.265,71.551,578.607,71.551ZM502.331,59.778h-8.025V73.116a15.061,15.061,0,0,0-6.656-1.594c-7.3,0-12.395,5.422-12.395,13.235,0,7.64,5.094,13.286,11.963,13.286a10.476,10.476,0,0,0,7.088-2.546v2.041h8.025Zm-8.025,30.788a6.76,6.76,0,0,1-4.76,2.095c-3.773,0-6.138-3.091-6.138-7.741,0-5.092,2.365-8.035,6.416-8.035a8.875,8.875,0,0,1,4.482,1.487ZM240.772,72h-8.525l-5.484,14.067L221.337,72H213.5l10.848,25.541h4.909Z" transform="translate(-20.907 -20.985)"/>
    </g>
    <path d="M603.952,92.056a5.929,5.929,0,1,1-5.929-5.929A5.919,5.919,0,0,1,603.952,92.056Zm-10.685,0a4.764,4.764,0,1,0,4.756-4.756A4.764,4.764,0,0,0,593.267,92.056Zm5.977,3.171-.507-1.031a5.612,5.612,0,0,0-.856-1.236c-.254-.254-.476-.317-1.031-.317h-.238v2.584h-1.268V88.933h3.107c1.348,0,1.982.761,1.982,1.76a1.738,1.738,0,0,1-1.7,1.759v.032c.539.19.713.365,1.347,1.474l.729,1.269Zm-1.316-3.583c.872,0,1.158-.428,1.158-.872,0-.555-.445-.856-1.3-.856h-1.173v1.728Z" transform="translate(-20.907 -20.985)"/>
  </g>
</svg>
