<svg xmlns="http://www.w3.org/2000/svg" width="567.067" height="115.351" viewBox="0 0 567.067 115.351">
  <g>
    <path d="M100.46,28.3c4.771-5.635,6.885-8.24,6.427-9.661A4.88,4.88,0,0,0,103.756,16c-1.8-.681-4.262-1-5.5-.268a19.311,19.311,0,0,0-2.7,2.824l-1.507,1.7h0c-.96-.981-1.985-1.958-2.988-2.829a51.248,51.248,0,0,0-25.869-12C61.307,1.306,56.244-.609,51.262.171a15.264,15.264,0,0,0-10.39,7.04A57.573,57.573,0,0,0,15.2,23.478v-.006c-1.569-.469-5.01.14-7.163,1.32a3.634,3.634,0,0,0-2.1,2.35c-.118.668.152,1.713,2.834,4.774l0,0A56.677,56.677,0,0,0,.374,68.525a51.8,51.8,0,0,0,17.313,33.108,51.168,51.168,0,0,0,11.2,7.424,63.138,63.138,0,0,0,58.863-2.081l.022-.017a3.2,3.2,0,0,0,1.252-4.218l-.217-.491c-2.964-6.643-11.983-26.859-6.96-45.3,2.1-7.719,8.159-15.94,13.394-22.39h0a50.337,50.337,0,0,1,8.009,29.06A46.04,46.04,0,0,1,94.087,89.6a1.092,1.092,0,0,0-.164,1.108l.572,1.333a1.091,1.091,0,0,0,1.837.231h0C111.137,73.5,112.91,47.662,100.46,28.3ZM35.036,71.918A104.443,104.443,0,0,0,33.7,102.673l0,0A52.18,52.18,0,0,1,23.029,95.5,51.18,51.18,0,0,1,6.21,65.988,47.453,47.453,0,0,1,11.3,34.643h0l0,0v0c1.985,2.073,4.383,4.455,6.9,6.947,6.149,6.093,13.12,13,16.51,17.915,1.964,2.847,1.352,6.446.335,12.413M88.5,26.179c-11.332,11.39-22.014,17.567-31.734,18.3-7.477.563-15.4-1.663-23.543-6.628A90.752,90.752,0,0,1,18.188,25.921l-.317-.3h0A46.206,46.206,0,0,1,38.333,12.937l0,0,.006,0-.008,0a23.124,23.124,0,0,0-.47,9.659A21.81,21.81,0,0,0,46.208,36.9a14.642,14.642,0,0,0,21.136-3.322A21.812,21.812,0,0,0,70.9,17.4a24.107,24.107,0,0,0-.729-3.2l0,0a51.58,51.58,0,0,1,15.543,9.356c.944.823,1.878,1.7,2.786,2.617Z" fill="#fff"/>
    <path d="M278.912,56.509h-9.3V67.028c0,2.5,1.445,4.1,3.932,4.1a11.153,11.153,0,0,0,5.367-1.495v5.807a18.179,18.179,0,0,1-7.412,1.613c-5.318,0-9.912-2.437-9.912-9.58V56.509h-3.651V54.962l10.678-11.951h1v8.02h9.3Zm109.794,8.533c-5.43,2.607-8.748,4.149-13.672,4.149-7.861,0-13.465-4.812-13.465-11.57,0-6.7,5.658-11.462,13.682-11.462,4.648,0,8.855,1.556,13.015,3.872V41.622a26.581,26.581,0,0,0-13.679-3.328c-14.453,0-22.713,9.421-22.713,19.491,0,9.749,7.318,19.273,22,19.273a29.2,29.2,0,0,0,14.834-3.769Zm-195.9,8.177-5.71,3.82a7.607,7.607,0,0,1-4.99-3.153,9.995,9.995,0,0,1-7.575,3.153c-8.631,0-12.116-7.692-12.116-13.237,0-6.139,3.754-13.284,12.338-13.284a12.957,12.957,0,0,1,6.7,1.723v-1.23h7.972V67.675C189.423,70.013,189.871,72.6,192.805,73.219ZM181.4,57.326a8.681,8.681,0,0,0-4.656-1.447c-4.537,0-6.088,4.822-6.088,8.48,0,3.379,1.774,6.917,6.245,6.917a6.453,6.453,0,0,0,4.5-1.715Zm65.412,7.753H228.481c.278,4.539,3.376,7.2,8.425,7.2,3.207,0,5.695-.942,9.458-3.655V73.66a18.477,18.477,0,0,1-11.4,3.379c-8.966,0-14.779-5.2-14.779-13.187,0-7.8,5.586-13.334,13.454-13.334C241.057,50.518,247.2,55.777,246.814,65.079Zm-6.759-4.209c-.334-3.5-2.444-5.582-5.538-5.582-3.164,0-5.2,2.038-5.544,5.582ZM339.839,65.1H321.507c.277,4.54,3.379,7.2,8.414,7.2,3.216,0,5.711-.942,9.48-3.654v5.034a18.528,18.528,0,0,1-11.418,3.377c-8.969,0-14.777-5.2-14.777-13.186,0-7.8,5.592-13.335,13.449-13.335C334.077,50.537,340.229,55.8,339.839,65.1Zm-7.086-4.21c-.336-3.5-2.442-5.581-5.547-5.581-3.147,0-5.2,2.038-5.533,5.581Zm-41.44-22.1h-8.026V76.553h8.026V61.438a5.018,5.018,0,0,1,5.369-5.04c2.493,0,4.151,1.782,4.151,5.6V76.553h8.041V60.283c0-6.93-4.711-9.746-9.369-9.746a10.065,10.065,0,0,0-8.192,4.262h0Zm111.543,0h-8.025V76.553h8.025V61.438a5.018,5.018,0,0,1,5.371-5.04c2.491,0,4.149,1.782,4.149,5.6V76.553h8.041V60.283c0-6.93-4.711-9.746-9.369-9.746a10.065,10.065,0,0,0-8.192,4.262h0ZM156.9,41.229a30.886,30.886,0,0,0-12.8-2.935c-8.746,0-14.393,4.326-14.393,10.852,0,13.563,19.209,11.306,19.209,17.508,0,2.2-1.928,3.478-5.529,3.478-4.162,0-7.482-1.276-12.9-4.873V73.4c3.764,1.93,7.032,3.654,13.613,3.654,8.426,0,14.514-4.209,14.514-11.456,0-13.191-19.212-11.582-19.212-17.29,0-1.866,2.153-3.091,5.53-3.091,3.223,0,6.476.938,11.966,3.373Zm272.774-2.935a4.431,4.431,0,1,0,4.421,4.425A4.439,4.439,0,0,0,429.677,38.294Zm4.041,12.737h-8.024V76.553h8.024Zm14.187-12.239h-8.023v27.7c0,5.028,1.382,10.289,9.746,10.569l2.549-5.814c-3.432-.659-4.272-2.215-4.272-6.093Zm47.484,12.239h-8.021V76.553h8.021V65.328c0-4.752,2.479-7.255,6.6-7.255,1.264,0,2.643.544,4.754,1.865l2.217-7.08c-2.321-1.711-3.711-2.321-5.311-2.321-2.576,0-6.305,1.432-8.262,6.388ZM536.477,65.1h-18.33c.283,4.54,3.375,7.2,8.41,7.2,3.215,0,5.709-.942,9.475-3.654v5.034a18.5,18.5,0,0,1-11.412,3.377c-8.967,0-14.777-5.2-14.777-13.186,0-7.8,5.584-13.335,13.447-13.335C530.714,50.537,536.856,55.8,536.477,65.1Zm-7.1-4.21c-.334-3.5-2.434-5.581-5.534-5.581-3.152,0-5.2,2.038-5.533,5.581ZM557.7,50.566a10.063,10.063,0,0,0-8.191,4.262v-3.8h-8.026V76.582h8.026V61.366a5.054,5.054,0,0,1,5.371-4.939c2.49,0,4.148,1.782,4.148,5.6V76.582h8.039V60.312C567.067,53.382,562.358,50.566,557.7,50.566ZM481.425,38.792H473.4V52.13a15.06,15.06,0,0,0-6.656-1.593c-7.3,0-12.395,5.421-12.395,13.235,0,7.639,5.094,13.286,11.963,13.286a10.472,10.472,0,0,0,7.088-2.547v2.042h8.026ZM473.4,69.581a6.764,6.764,0,0,1-4.76,2.095c-3.773,0-6.138-3.092-6.138-7.741,0-5.093,2.365-8.035,6.416-8.035a8.874,8.874,0,0,1,4.482,1.486ZM219.865,51.011H211.34l-5.484,14.068L200.43,51.011h-7.838L203.44,76.553h4.909Z" fill="#fff"/>
  </g>
</svg>
