<?xml version="1.0" standalone="no"?>
<!DOCTYPE svg PUBLIC "-//W3C//DTD SVG 20010904//EN"
 "http://www.w3.org/TR/2001/REC-SVG-20010904/DTD/svg10.dtd">
<svg version="1.0" xmlns="http://www.w3.org/2000/svg"
 width="656.000000pt" height="656.000000pt" viewBox="0 0 656.000000 656.000000"
 preserveAspectRatio="xMidYMid meet">
<metadata>
Created by potrace 1.11, written by Peter Selinger 2001-2013
</metadata>
<g transform="translate(0.000000,656.000000) scale(0.100000,-0.100000)"
fill="#000000" stroke="none">
<path d="M3208 5685 c-2 -1 -23 -5 -48 -8 -137 -16 -287 -108 -393 -242 -35
-44 -48 -52 -130 -81 -324 -113 -638 -309 -886 -556 l-84 -83 -66 -1 c-142 -3
-294 -70 -319 -143 -13 -36 8 -84 68 -160 l43 -55 -27 -45 c-68 -114 -169
-339 -214 -476 -55 -165 -65 -209 -99 -410 -24 -146 -23 -571 2 -665 2 -8 6
-31 9 -50 3 -19 8 -46 11 -60 3 -14 7 -35 9 -47 13 -66 61 -224 91 -303 203
-532 618 -968 1135 -1194 47 -21 94 -41 105 -46 143 -63 469 -144 660 -165 48
-5 264 -18 310 -18 63 0 263 12 292 17 12 3 47 7 78 11 63 6 172 27 213 39 9
3 29 7 44 10 112 19 351 108 536 199 234 115 243 138 146 362 -127 294 -222
591 -263 820 -6 33 -13 69 -15 81 -2 12 -8 45 -11 75 -4 30 -10 65 -12 79 -2
14 -6 108 -7 210 -9 439 76 707 357 1125 22 33 43 62 46 65 3 3 47 59 96 124
111 147 114 151 118 145 14 -17 111 -197 137 -254 78 -169 148 -404 170 -565
6 -47 13 -96 16 -110 6 -31 6 -348 1 -375 -3 -11 -8 -49 -12 -85 -4 -36 -9
-72 -10 -80 -65 -314 -159 -537 -327 -779 -44 -63 -45 -69 -18 -121 24 -46 33
-53 61 -45 35 12 168 203 266 386 32 59 112 234 119 259 2 8 20 62 40 120 95
281 132 581 110 895 -7 97 -16 164 -42 300 -35 188 -122 416 -230 610 l-61
110 18 25 c11 14 60 75 109 135 100 122 146 202 136 238 -22 87 -185 161 -314
142 -46 -7 -78 -34 -171 -144 -24 -28 -47 -50 -51 -49 -4 2 -32 26 -62 53
-132 121 -241 203 -375 281 -217 128 -533 245 -726 268 -26 3 -49 16 -75 41
-78 77 -198 144 -312 175 -40 11 -184 22 -192 15z m-592 -577 c-53 -253 1
-540 142 -752 272 -410 785 -452 1066 -87 80 103 116 182 152 331 18 76 26
278 13 347 -16 83 -17 87 -24 115 l-7 27 62 -24 c112 -44 415 -215 450 -254 3
-3 28 -24 55 -46 96 -77 185 -159 185 -171 0 -12 -184 -183 -310 -288 -266
-222 -627 -412 -855 -452 -11 -2 -33 -6 -50 -10 -16 -3 -93 -8 -170 -9 -133
-3 -182 2 -370 40 -131 27 -406 150 -575 258 -81 52 -321 228 -356 261 -6 6
-43 39 -82 74 -38 34 -91 82 -118 106 l-48 45 61 58 c144 138 253 219 414 308
110 61 326 153 363 155 5 0 5 -15 2 -32z m-396 -1598 c47 -51 95 -104 107
-116 46 -49 151 -191 173 -234 20 -39 24 -60 24 -155 0 -60 -3 -123 -6 -140
-4 -16 -10 -55 -13 -85 -4 -30 -8 -57 -10 -60 -2 -3 -6 -30 -10 -60 -4 -30 -8
-57 -10 -60 -2 -3 -6 -27 -9 -55 -4 -27 -11 -75 -16 -105 -9 -58 -15 -113 -27
-245 -10 -108 -9 -578 1 -694 l8 -93 -48 28 c-27 15 -60 35 -74 44 -14 10 -30
19 -35 21 -30 11 -206 141 -278 204 -73 64 -216 209 -257 261 -27 34 -125 169
-137 189 -110 181 -172 306 -223 450 -31 89 -68 216 -76 265 -3 14 -9 50 -15
80 -25 138 -33 448 -16 585 26 195 92 421 175 598 l51 107 318 -318 c175 -175
356 -361 403 -412z"/>
</g>
</svg>
